<svg xmlns="http://www.w3.org/2000/svg" width="88.11" height="263.905" viewBox="0 0 88.11 263.905">
  <g id="Ebene_1-2" transform="translate(0.034 0.017)">
    <path id="Pfad_2" data-name="Pfad 2" d="M-1018.923,464.038l-4.136-30.379-8.075-10.505-6.563-11.3V387.226l4.868-12.088,7.217-8.55,14.324-8.941L-997.042,355l12.276,2.648,10.012,4,7.17,6.646,9.215,12.756,1.955,11.318V409.95l-3.661,13.2-7.509,10.505L-983.308,570.17v10.6l-6.079,8.582-3.506,10.586-3.086,5.825-3.747-10.74-5.471-12.065-1.4-12.785Z" transform="translate(1040.495 -353.996)" fill="#fff"/>
    <path id="Pfad_1" data-name="Pfad 1" d="M88.076,46.779c-.229,1.726-.426,3.478-.7,5.217a46.67,46.67,0,0,1-.94,4.9,36.363,36.363,0,0,1-1.818,5.233c-1.061,2.391-2.328,4.69-3.471,7.044-.357.737-.531,1.562-.9,2.289-.753,1.48-1.556,2.934-2.391,4.369a35.321,35.321,0,0,0-2.469,4.958,19.579,19.579,0,0,0-1.12,5.151c-.206,2-.521,4-.76,6-.16,1.346-.262,2.7-.409,4.044-.154,1.431-.337,2.856-.5,4.287-.1.92-.183,1.84-.288,2.761-.167,1.493-.347,2.987-.511,4.48-.1.943-.174,1.886-.278,2.829-.16,1.451-.341,2.9-.5,4.349-.1.92-.18,1.84-.282,2.761-.164,1.493-.35,2.987-.511,4.48-.147,1.369-.252,2.744-.409,4.11-.164,1.418-.383,2.826-.55,4.244-.219,1.854-.409,3.71-.622,5.567-.383,3.367-.776,6.733-1.156,10.1-.236,2.076-.449,4.152-.681,6.229-.458,4.1-.9,8.207-1.4,12.3-.219,1.814-.576,3.612-.815,5.423-.18,1.366-.259,2.741-.416,4.11-.134,1.169-.327,2.332-.478,3.5-.118.917-.2,1.837-.3,2.757-.17,1.516-.35,3.029-.514,4.545-.144,1.369-.249,2.744-.409,4.11-.183,1.575-.419,3.144-.616,4.716-.118.94-.193,1.883-.3,2.823-.164,1.474-.344,2.944-.508,4.414-.1.9-.177,1.8-.278,2.7-.167,1.474-.35,2.941-.511,4.414-.1.943-.17,1.886-.275,2.829-.16,1.408-.347,2.81-.508,4.218-.1.9-.18,1.8-.275,2.7q-.255,2.4-.514,4.807c0,.023-.01.046,0,.066a9.984,9.984,0,0,1-.275,3.75,4.134,4.134,0,0,1-.373,1.054c-.134.288-.39.524-.5.819a9.779,9.779,0,0,1-2.106,3.088,22.01,22.01,0,0,0-4.355,6.854,21.014,21.014,0,0,0-1.29,5.518c-.187,1.978-.259,3.966-.409,5.944-.157,2.063-.226,4.143-.56,6.176a44.639,44.639,0,0,1-1.346,4.971,13.673,13.673,0,0,1-.586,1.723,2.164,2.164,0,0,1-3.026,1.133,5.4,5.4,0,0,1-2.364-1.7,4.317,4.317,0,0,1-.606-1.654,21.363,21.363,0,0,1-.275-2.63c-.072-1.343-.049-2.692-.151-4.035-.115-1.5-.327-2.99-.491-4.483-.1-.92-.17-1.844-.288-2.761-.2-1.592-.393-3.19-.665-4.771a35.744,35.744,0,0,0-.927-4.244A26.707,26.707,0,0,0,36.429,233c-.832-1.644-1.89-3.17-2.852-4.748-.065-.108-.118-.265-.216-.308-1.513-.655-1.483-2.07-1.654-3.37-.16-1.215-.272-2.436-.413-3.651-.121-1.064-.249-2.132-.38-3.2-.157-1.3-.324-2.6-.481-3.894q-.221-1.822-.436-3.645-.26-2.274-.514-4.545c-.141-1.28-.265-2.567-.406-3.848-.164-1.474-.347-2.944-.511-4.414-.1-.943-.167-1.886-.278-2.829-.154-1.32-.344-2.636-.5-3.956-.151-1.28-.265-2.564-.416-3.845-.144-1.235-.347-2.463-.468-3.7-.092-.93-.043-1.873-.144-2.8q-1.218-11.259-2.472-22.514c-.727-6.438-1.52-12.87-2.25-19.308-.373-3.288-.691-6.582-1.009-9.874-.111-1.153-.111-2.319-.213-3.475s-.265-2.3-.4-3.452c-.124-1.045-.252-2.089-.373-3.134q-.26-2.274-.514-4.545c-.1-.9-.177-1.8-.275-2.7-.167-1.559-.35-3.118-.514-4.676-.144-1.392-.255-2.787-.406-4.179-.154-1.431-.344-2.856-.5-4.283-.1-.94-.177-1.886-.282-2.826-.164-1.516-.35-3.029-.511-4.545-.144-1.349-.259-2.7-.406-4.048a41.409,41.409,0,0,1-.465-4.287c-.007-1.339-.94-2.109-1.5-3.108s-1.133-2.014-1.788-2.96a20.968,20.968,0,0,0-2-2.469A31.565,31.565,0,0,1,6.327,67.98,43.31,43.31,0,0,1,3.55,62.125C2.682,59.9,1.978,57.6,1.33,55.3a45.226,45.226,0,0,1-.933-4.7,43.467,43.467,0,0,1-.38-8.629c.056-1.736.347-3.465.488-5.2A26.577,26.577,0,0,1,1.72,30.749,23.2,23.2,0,0,1,3.9,25.3c.295-.465.422-1.041.75-1.477,1.307-1.749,2.626-3.491,4-5.184,1.6-1.971,3.262-3.9,4.906-5.832A29.312,29.312,0,0,1,21.7,6.184a54.823,54.823,0,0,1,6.713-3.049,59.928,59.928,0,0,1,6.245-1.991A35.445,35.445,0,0,1,38.578.5c1.185-.18,2.371-.422,3.563-.485,1.385-.069,2.777,0,4.166.069,1.032.049,2.057.2,3.088.278a19.371,19.371,0,0,1,5.449,1.077c.891.341,1.824.576,2.725.894.658.233,1.294.517,1.942.779,1.736.7,3.537,1.284,5.194,2.138a17.676,17.676,0,0,1,3.717,2.61c1.664,1.513,3.19,3.177,4.726,4.821,1.444,1.549,2.872,3.118,4.215,4.752a51.683,51.683,0,0,1,3.193,4.339,52.377,52.377,0,0,1,2.869,4.85,28.531,28.531,0,0,1,1.7,4.175c.586,1.795,1.087,3.619,1.51,5.459.337,1.477.534,2.987.73,4.493.262,1.985.468,3.976.7,6.026ZM34.238,209.619c1.212.38,2.368.815,3.563,1.1,1.287.308,2.6.491,3.91.694a13.56,13.56,0,0,0,4.614,0c1.153-.213,2.309-.413,3.448-.684,1.071-.259,2.135-.563,3.177-.927.9-.318,1.749-.812,2.659-1.1.616-.2.707-.567.727-1.091.023-.583.079-1.163.141-1.742.164-1.474.341-2.944.508-4.414.1-.94.18-1.886.3-2.823.147-1.169.347-2.328.485-3.5.157-1.369.255-2.744.409-4.11.246-2.174.521-4.349.773-6.523.183-1.578.354-3.16.527-4.739.138-1.238.265-2.479.4-3.717.167-1.516.347-3.029.514-4.545.1-.9.144-1.8.288-2.7.219-1.375.573-2.728.743-4.11.429-3.468.793-6.946,1.179-10.42.334-3.023.655-6.045.986-9.068.413-3.756.838-7.509,1.251-11.265.311-2.829.6-5.662.914-8.492.164-1.474.364-2.944.537-4.418.1-.832.174-1.67.275-2.5.164-1.339.36-2.679.491-4.021a.819.819,0,0,0-.36-.665c-2.446-1.107-4.886-2.23-7.375-3.229a46.336,46.336,0,0,0-4.968-1.628,39.906,39.906,0,0,0-4.077-.815,35.7,35.7,0,0,0-4.581-.616c-2.279-.075-4.565.049-6.851.108a10.338,10.338,0,0,0-1.339.174c-1.2.2-2.414.347-3.6.616-1.991.449-3.989.9-5.937,1.493-1.533.465-3,1.153-4.447,1.723.023.269.046.521.069.776.092.986.17,1.975.275,2.96.16,1.493.347,2.987.508,4.48.1.986.167,1.975.278,2.96.154,1.362.36,2.721.5,4.084.072.694.007,1.4.079,2.1.272,2.721.583,5.443.861,8.164q.349,3.439.658,6.877.521,5.787,1.012,11.573c.278,3.252.455,6.517.829,9.759.321,2.8.858,5.577,1.29,8.367.174,1.12.327,2.243.485,3.367.19,1.379.38,2.761.56,4.143.177,1.339.344,2.679.511,4.018.183,1.47.37,2.937.534,4.411.111.986.16,1.975.282,2.96.193,1.595.455,3.183.632,4.781.21,1.9.327,3.818.544,5.721.242,2.152.544,4.3.822,6.461ZM70.723,81.4c-.537-.252-1.058-.5-1.578-.737-1.025-.472-2.027-1-3.078-1.4-1.487-.567-3-1.074-4.519-1.549a58.691,58.691,0,0,0-6.871-1.935c-1.7-.314-3.383-.72-5.112-.881-2.142-.2-4.274-.524-6.419-.616-2.037-.085-4.087.052-6.13.111a10.932,10.932,0,0,0-1.339.17c-1.267.2-2.535.393-3.8.609-1.326.226-2.672.383-3.966.737-2.538.7-5.05,1.5-7.562,2.3-.272.085-.655.429-.655.652a15.947,15.947,0,0,0,.262,2.03c.21,1.614.419,3.232.612,4.85.111.94.17,1.886.288,2.826.151,1.212.354,2.417.5,3.628.17,1.431.3,2.865.462,4.45,15.722-6.848,31.458-6.943,47.174-.151.583-5.063,1.156-10.05,1.736-15.09ZM35.319,218.89c.023.485.013.953.069,1.415.157,1.362.314,2.725.524,4.077.075.481-.062,1.077.668,1.3a23.521,23.521,0,0,0,6.186,1.032,28.418,28.418,0,0,0,6.111-.481,20.41,20.41,0,0,0,5.957-1.706c.138-1.975.275-3.923.413-5.868a40.58,40.58,0,0,1-19.921.229Zm2.829,10.293c2.587,4.382,3.707,9.124,4.5,14.075h3.763a23.352,23.352,0,0,1,6.537-14.376,33.3,33.3,0,0,1-14.8.3Zm5.119-181.2c-.367.884-.645,1.647-.992,2.374-.91,1.906-1.863,3.8-2.77,5.7a.99.99,0,0,0,0,.743c.426.93.9,1.84,1.366,2.754s.963,1.844,1.464,2.8c1.29-2.286,2.515-4.509,3.8-6.7a.958.958,0,0,0-.01-1.038c-.36-.773-.72-1.549-1.054-2.335-.589-1.382-1.163-2.77-1.8-4.3ZM57.961,61.974c.193-.249.347-.422.475-.612,1.077-1.611,2.174-3.213,3.216-4.85a2.666,2.666,0,0,0,.576-1.867c-.252-1.6-.472-3.213-.707-4.84a13.157,13.157,0,0,0-1.375-.422.656.656,0,0,0-.567.216q-1.734,2.987-3.4,6.013a1.314,1.314,0,0,0-.085.94c.583,1.785,1.218,3.556,1.867,5.423ZM14.7,58.1c-1.248,1.952-2.482,3.884-3.763,5.885l3.936,4.025c1.176-1.945,2.3-3.8,3.4-5.633C17.1,60.972,15.932,59.57,14.7,58.1Zm4.5,2.676c.576-1.028,1.117-2.014,1.677-2.99.233-.406.544-.77.756-1.185.193-.38.54-.924.406-1.192-.868-1.759-1.844-3.461-2.8-5.177-.164-.291-.393-.354-.557.029-.19.449-.341.92-.563,1.353-.776,1.5-1.585,2.983-2.361,4.486a.639.639,0,0,0,.026.563c1.11,1.369,2.247,2.715,3.412,4.113Zm8.108-.442c.226-.429.377-.734.547-1.025.8-1.339,1.621-2.662,2.374-4.025a1.325,1.325,0,0,0-.075-.979c-.295-.707-.662-1.385-1.012-2.07-.465-.907-.937-1.811-1.48-2.859-1.107,2.1-2.142,4.041-3.144,6a.8.8,0,0,0,.062.668c.871,1.411,1.775,2.8,2.725,4.29ZM65.686,62.6c.7-.937,1.359-1.8,2-2.676.429-.583.851-1.176,1.261-1.775a1.74,1.74,0,0,0,.255-1.6c-.462-1.572-.786-3.18-1.2-4.765a.875.875,0,0,0-.508-.439c-.092-.036-.331.144-.419.278-.832,1.267-1.657,2.538-2.453,3.828a2.058,2.058,0,0,0-.4,1.1,14.845,14.845,0,0,0,.449,2.384c.3,1.2.662,2.394,1.015,3.658ZM50.629,60.641c.779-1.215,1.438-2.283,2.138-3.317.681-1.012,1.461-1.975.7-3.294a4.527,4.527,0,0,1-.278-.91c-.4-1.323-.809-2.646-1.244-4.067-.1.183-.157.269-.2.36-.881,1.709-1.749,3.425-2.646,5.132-.373.711-.711,1.271-.151,2.171a26.963,26.963,0,0,1,1.687,3.926ZM65.755,26.027c-1.294-1.592-2.558-3.144-3.822-4.7-1.307,1.153-2.554,2.256-3.848,3.4a25.114,25.114,0,0,1,1.536,2.2,2.579,2.579,0,0,0,2.171,1.618c.187.01.373.1.56.115a.667.667,0,0,0,.419-.1c.969-.806,1.922-1.624,2.983-2.528Zm-22.573-9.16c1.261-1.258,2.518-2.515,3.786-3.779-.868-.956-1.791-1.975-2.718-2.99-.255-.282-.508-.74-.8-.766s-.639.357-.917.609c-1.051.956-2.083,1.929-3.1,2.882,1.33,1.434,2.594,2.793,3.75,4.041ZM44.449,18.4c1.2,1.379,2.319,2.659,3.465,3.976,1.333-1.264,2.669-2.528,4.028-3.815-1.222-1.366-2.391-2.669-3.635-4.057Zm1.457,49.145c.478-.681.943-1.33,1.392-1.994.619-.92,1.241-1.84,1.824-2.784a1.008,1.008,0,0,0,.128-.776c-.468-1.166-1-2.309-1.5-3.461-.151-.341-.295-.684-.439-1.018-1.208,2.07-2.368,4.061-3.53,6.052a.777.777,0,0,0,.033,1.015c.73.943,1.382,1.945,2.1,2.967Zm15.058,1.032a3.247,3.247,0,0,0,.373-.327c1.009-1.267,2.017-2.531,3.01-3.812a.622.622,0,0,0,0-.462c-.308-1.038-.648-2.066-.946-3.108-.233-.809-.416-1.631-.665-2.613-.508.832-.9,1.533-1.349,2.2-.688,1.028-1.415,2.03-2.109,3.055A.987.987,0,0,0,59.2,64.8a4.429,4.429,0,0,1,.406.851c.442.953.887,1.906,1.362,2.921ZM19.525,63.995c-1.022,1.644-2.109,3.4-3.226,5.2l3.864,2.5c.973-1.552,1.873-2.99,2.852-4.555-1.156-1.045-2.315-2.086-3.491-3.15Zm1.962-49.443c-.386.442-.73.819-1.054,1.212-.786.953-1.572,1.906-2.332,2.875a.492.492,0,0,0,.062.475c.92.9,1.863,1.781,2.8,2.666.131.124.275.239.4.344,1.13-1.578,2.217-3.1,3.344-4.667l-3.216-2.9Zm10.05,42.333A38.793,38.793,0,0,1,29.3,60.772,1.465,1.465,0,0,0,29.464,63c.845.9,1.582,1.9,2.381,2.875.822-1.438,1.608-2.8,2.378-4.169a.516.516,0,0,0,.013-.439c-.871-1.438-1.762-2.865-2.7-4.378ZM11.02,53.155c-.357.642-.645,1.14-.914,1.647-.756,1.431-1.467,2.885-2.273,4.287-.311.544-.449.927.138,1.333.167.115.246.347.383.511.429.524.868,1.041,1.339,1.6.37-.665.668-1.251,1.018-1.808.848-1.352,1.723-2.689,2.571-4.041a.444.444,0,0,0-.01-.406c-.717-1.018-1.454-2.024-2.253-3.127ZM55.652,24.536c-.9-1.487-1.785-2.954-2.7-4.473-1.356,1.264-2.643,2.469-3.9,3.648.717.969,1.438,1.926,2.135,2.9a1.618,1.618,0,0,0,2,.272c.815-.763,1.614-1.539,2.463-2.348ZM38.145,14.109c-1.081,1.163-2.076,2.227-3.072,3.3,1.3,1.451,2.515,2.816,3.763,4.211l3.1-3.278c-1.248-1.392-2.472-2.757-3.792-4.231ZM25.966,18.845c-1.149,1.546-2.227,2.983-3.285,4.431a.4.4,0,0,0,.033.373c.94,1.061,1.893,2.106,2.856,3.173,1.107-1.516,2.214-3.029,3.337-4.565ZM54.008,67.662c.74-1.061,1.372-2.024,2.063-2.944a1.52,1.52,0,0,0,.318-1.9,40.862,40.862,0,0,1-1.7-4.781c-.868,1.3-1.729,2.561-2.561,3.841-.193.3-.494.753-.393.982.691,1.592,1.474,3.141,2.276,4.8ZM72.665,62.6c.645-.907,1.189-1.673,1.729-2.44.393-.557.806-1.1,1.163-1.683a3.027,3.027,0,0,0,.639-1.352,17.761,17.761,0,0,0-.4-2.26,1.438,1.438,0,0,0-1.146-1.343c-.455-.134-.642-.069-.871.324-.612,1.048-1.284,2.066-1.912,3.1a1.9,1.9,0,0,0-.3,1.86,24.07,24.07,0,0,1,.75,2.7c.088.318.2.632.347,1.087ZM38.113,11.542c1.4-1.307,2.757-2.567,4.143-3.858-.74-.779-1.444-1.5-2.122-2.24-.711-.783-.747-.848-1.5-.213-1.208,1.015-2.348,2.109-3.5,3.16l2.987,3.15Zm1.922,11.387c.77,1.061,1.552,2.106,2.3,3.173a.978.978,0,0,0,1.713.16c.494-.511,1.045-.966,1.542-1.474.344-.35.642-.747.956-1.117-1.163-1.339-2.269-2.61-3.367-3.871-1.084,1.081-2.135,2.125-3.141,3.127Zm-16.1,42.756c.576-.878,1.159-1.768,1.742-2.659.678-1.032.684-1.038,0-2.04-.8-1.159-1.608-2.309-2.4-3.435-.717,1.261-1.441,2.541-2.171,3.815a1.355,1.355,0,0,1-.311.4.468.468,0,0,0-.02.783c1.041,1.058,2.106,2.093,3.157,3.134ZM70.245,22.444c-1.228-1.533-2.423-3.036-3.648-4.516a.579.579,0,0,0-.56-.059c-.93.714-1.831,1.464-2.7,2.174,1.349,1.637,2.643,3.213,3.933,4.778.969-.776,1.932-1.546,2.974-2.381Zm-38.974-.272c1.11,1.487,2.142,2.872,3.193,4.28.963-1.084,1.916-2.135,2.836-3.219a.638.638,0,0,0-.029-.583,6.844,6.844,0,0,0-.72-.825c-.894-.989-1.788-1.981-2.7-2.99-.887,1.146-1.736,2.243-2.577,3.334Zm-17.15,2.155c1.271,1.13,2.459,2.188,3.694,3.281.8-1.254,1.6-2.509,2.387-3.773a.409.409,0,0,0-.072-.38c-.982-.966-1.985-1.909-2.967-2.872-.3-.3-.449-.157-.632.124-.793,1.208-1.6,2.41-2.407,3.619ZM47.177,69.11c.18.236.337.455.511.662.612.737,1.045,1.624,2.24,1.7.93.062,1.294.052,1.873-.737a8.024,8.024,0,0,1,.865-1.113.589.589,0,0,0,.095-.848c-.442-.779-.874-1.562-1.307-2.348-.341-.622-.678-1.248-1.038-1.919-1.1,1.562-2.174,3.091-3.236,4.6Zm9.939-45.9c1.218-1.1,2.381-2.142,3.524-3.173-1.087-1.339-2.155-2.659-3.242-4-1.025.953-2,1.857-2.974,2.761C55.312,20.246,56.2,21.7,57.116,23.207ZM35.355,59.7c.606-1.153,1.212-2.279,1.788-3.419a.764.764,0,0,0-.039-.54c-.255-.694-.544-1.379-.809-2.07-.393-1.025-.779-2.053-1.205-3.18-.157.288-.239.439-.321.586-.576,1.022-1.166,2.037-1.726,3.068-.233.429-.521.829-.164,1.4.855,1.346,1.637,2.738,2.472,4.156Zm-22.236-33.9c-1,1.654-1.994,3.285-3,4.942a2.793,2.793,0,0,1,.478.462c.36.57.819.514,1.372.331a18.9,18.9,0,0,1,3.059-.881,1.938,1.938,0,0,0,1.834-1.5c-1.235-1.107-2.469-2.214-3.743-3.353Zm52-9.625c-1.14-1.346-2.243-2.646-3.386-4-1.022.917-1.971,1.768-2.921,2.617l3.262,3.91c1.032-.858,2.037-1.693,3.049-2.531ZM35.542,63.317c-.717,1.205-1.434,2.394-2.122,3.6a.642.642,0,0,0-.007.563,5.928,5.928,0,0,0,.73.789c.743.743,1.526,1.447,2.217,2.237.308.354.354.2.531-.056.6-.858,1.218-1.706,1.808-2.528-1.041-1.516-2.089-3.046-3.16-4.6Zm34.464-3.439c-.3.429-.573.809-.848,1.189-.8,1.11-1.611,2.214-2.378,3.344a.984.984,0,0,0-.085.786c.3.793.678,1.556,1.015,2.338.118.275.2.567.344,1,.94-1.189,1.7-2.283,2.6-3.245a1.571,1.571,0,0,0,.354-1.768c-.367-1.192-.668-2.4-1.009-3.642Zm-13.633-45.4L52.433,11.1c-.763.648-1.709,1.454-2.626,2.237,1.2,1.336,2.358,2.623,3.537,3.94.933-.861,1.876-1.729,3.026-2.787ZM36.8,12.852c-.973-1.048-1.955-2.1-2.97-3.193Q32.28,11.3,30.777,12.9c.956,1.025,1.86,2.011,2.793,2.964a.571.571,0,0,0,.547-.052c.9-.96,1.775-1.949,2.685-2.96ZM28.95,70.541c.58-.914,1.1-1.739,1.628-2.558a.628.628,0,0,0-.052-.9c-1.015-1.153-1.965-2.361-2.938-3.54-.678,1.058-1.323,2.112-2.021,3.131-.226.331-.252.511.056.789,1.1.992,2.171,2.007,3.324,3.082Zm45.464-51.09c-1.339-1.549-2.656-3.075-3.972-4.6-.763.5-1.434.946-2.112,1.379-.4.252-.347.521-.079.835.7.825,1.4,1.651,2.093,2.486.485.586.946,1.192,1.418,1.791C72.665,20.7,73.53,20.083,74.414,19.451ZM47.495,6c-.652.5-1.461,1.169-2.319,1.765-.341.239-.252.37-.049.589.291.314.573.642.868.956.815.871,1.634,1.742,2.469,2.626l3.006-2.459c-1.33-1.166-2.633-2.309-3.976-3.484Zm23.48,24.44c.887-.75,1.818-1.516,2.708-2.322a.69.69,0,0,0,.049-.655c-.753-1.14-1.546-2.253-2.345-3.36a.414.414,0,0,0-.4-.052c-.923.724-1.831,1.47-2.731,2.2.91,1.4,1.8,2.78,2.718,4.188ZM53.966,9.833c1.336,1.179,2.584,2.279,3.838,3.383.8-.7,1.713-1.513,2.662-2.351C59.31,9.646,58.2,8.48,57.09,7.311L53.969,9.833ZM27.086,17.4c.907,1.051,1.775,2.076,2.676,3.072a.587.587,0,0,0,.567.036c.786-.989,1.536-2.007,2.4-3.16L29.487,14.45C28.734,15.374,27.915,16.379,27.086,17.4ZM8.875,29.524c.956-1.569,1.922-3.16,2.924-4.807-.861-.616-1.7-1.218-2.567-1.834C7.883,24.3,7.382,26.115,6.455,27.6l2.42,1.926ZM36.419,47.608c-.432,1.267.285,2.194.655,3.19.383,1.035.77,2.073,1.2,3.229,1.081-2.21,2.08-4.264,3.131-6.419H36.416ZM63.64,73.6c1.051-1.2,2.017-2.3,2.967-3.4a.5.5,0,0,0,.108-.422c-.331-.8-.7-1.588-1.045-2.387-.141-.331-.249-.678-.406-1.11-.213.285-.334.455-.468.622-.878,1.094-1.762,2.184-2.623,3.288a.641.641,0,0,0-.108.547c.478.927,1,1.831,1.572,2.862ZM38.273,58.526c-.534.894-1.107,1.837-1.664,2.793a.416.416,0,0,0,.023.357c1.035,1.549,2.083,3.091,3.134,4.644.3-.373.517-.658.743-.937.809-1.015.838-1.336.2-2.476-.01-.02-.026-.036-.036-.056L38.27,58.526ZM28.2,13.163c-.94-1.005-1.863-1.994-2.784-2.983-.865.94-1.7,1.847-2.531,2.757-.213.236-.174.432.082.629.331.259.639.547.953.825.642.57,1.28,1.146,1.922,1.719.825-1.032,1.621-2.03,2.358-2.947Zm4.336-4.788C31.72,7.642,30.964,7,30.26,6.3c-.337-.337-.625-.364-.933-.062-.887.858-1.755,1.739-2.679,2.656,1.005.943,1.955,1.834,2.888,2.7,1.022-1.1,2-2.155,3-3.226ZM21.755,72.64c.537.308,1.038.635,1.575.878a1.479,1.479,0,0,0,.891.075c.91-.219,1.814-.472,2.7-.766a8.9,8.9,0,0,0,1.192-.606c-1.336-1.238-2.538-2.351-3.835-3.556C23.432,70,22.6,71.3,21.755,72.637Zm56.54-47.986c-.865-1.241-1.657-2.4-2.482-3.54a.591.591,0,0,0-.553-.138c-.779.527-1.529,1.091-2.273,1.667a.425.425,0,0,0-.039.4c.829,1.218,1.68,2.42,2.545,3.658.91-.668,1.824-1.336,2.8-2.053ZM55.145,69.28l2.42,3.55c.688-.783,1.352-1.52,1.985-2.283a.682.682,0,0,0,.131-.583c-.642-1.359-1.316-2.7-2.021-4.12ZM47.4,53.253l.21.026c.927-1.749,1.85-3.5,2.833-5.351-1.916-.088-3.628-.17-5.482-.259l2.44,5.58ZM52.83,8.316c.969-.809,1.935-1.618,2.964-2.479A5.093,5.093,0,0,0,54.69,5c-.953-.35-1.952-.586-2.921-.9a2.1,2.1,0,0,0-2.472.681C50.488,5.975,51.657,7.141,52.83,8.316Zm13.8,6.821,2.551-1.726c-1.349-1.3-2.656-2.558-3.976-3.832-.73.531-1.369,1-2.037,1.487Zm7.765,52.708c1.1-1.578,2.116-3.023,3.1-4.493a1.2,1.2,0,0,0,.111-.776,8.53,8.53,0,0,0-.308-1.1c-.138-.485-.275-.973-.409-1.457-1.048,1.418-2.066,2.761-3.032,4.143-.246.35-.606.694-.265,1.3a13.819,13.819,0,0,1,.806,2.381ZM17.347,76.387c.658-1.048,1.307-2.073,1.958-3.1-1.366-.91-2.653-1.765-3.933-2.617-.419.7-.842,1.415-1.156,1.945.567.737,1.032,1.379,1.536,1.985.517.622,1.074,1.212,1.592,1.795ZM15.421,19.1c-.439-.377-.917-.76-1.366-1.179s-.747-.219-1.048.174c-.311.409-.635.806-.956,1.205-.576.72-1.159,1.438-1.768,2.2.776.54,1.48,1.058,2.22,1.513.111.069.485-.069.58-.216.793-1.205,1.549-2.436,2.338-3.7ZM29,48.168c.871,1.709,1.687,3.311,2.528,4.965.9-1.8,1.765-3.537,2.715-5.436-1.808.164-3.468.311-5.24.472ZM79.2,26.216c-.992.711-1.886,1.349-2.731,1.955.747,1.176,1.49,2.338,2.266,3.56.756-.635,1.49-1.251,2.279-1.919-.586-1.166-1.179-2.338-1.814-3.6ZM26.628,28.283l6.206-.806c-.976-1.336-1.86-2.548-2.754-3.776-1.133,1.506-2.243,2.98-3.452,4.581ZM70.147,72.994c.982-1.143,1.893-2.194,2.784-3.255a.482.482,0,0,0,.052-.4c-.295-.887-.606-1.768-.93-2.7-.917,1.077-1.781,2.073-2.613,3.095-.2.249-.481.658-.4.878a25.23,25.23,0,0,0,1.107,2.374ZM14.606,16.346c.553.409,1.054.756,1.526,1.14.288.233.419.2.662-.1.92-1.166,1.89-2.289,2.836-3.432.167-.2.308-.429.468-.658-.455-.416-.848-.773-1.271-1.156a22.825,22.825,0,0,0-4.218,4.211Zm9.988,12.169c-1.048-1.228-2.03-2.374-3.052-3.573-.694,1.123-1.366,2.188-2.014,3.265-.138.226-.347.593-.262.734a.891.891,0,0,0,1.1.508c.812-.239,1.66-.354,2.492-.531.534-.115,1.064-.246,1.736-.4Zm1.218,20.261-.111-.16c-1.614.314-3.226.632-4.912.963.806,1.389,1.552,2.672,2.335,4.018.937-1.673,1.814-3.245,2.692-4.821ZM79,61.11c1.1-1.749,2.116-3.373,3.15-5.02-.845-.3-1.618-.573-2.338-.829-.455.707-.9,1.375-1.323,2.063a1.154,1.154,0,0,0-.252.7C78.439,59.017,78.71,59.99,79,61.11Zm-23.873-7.7,2.6-4.588-4.208-.6c.55,1.775,1.048,3.386,1.608,5.191ZM9.167,66.723l3.619,4.719c.445-.688.845-1.307,1.176-1.814Q11.9,67.584,9.952,65.642c-.2.272-.468.645-.786,1.081Zm31.586-63.2c.923.992,1.755,1.909,2.623,2.787A.644.644,0,0,0,44,6.322c.793-.583,1.552-1.208,2.338-1.837a2.228,2.228,0,0,0-2.119-1.231c-1.13.056-2.256.17-3.468.265Zm-35,25.616c-.573,1.824-1.1,3.511-1.647,5.259.917-.334,1.693-.616,2.466-.9a.392.392,0,0,0,.2-.157C7.2,32.56,7.611,31.78,8.027,31c-.73-.6-1.418-1.166-2.273-1.87ZM42.475,65.8c-.432.553-.914,1.127-1.339,1.736a.682.682,0,0,0,.023.616c.563.829,1.163,1.631,1.762,2.433.187.252.419.406.681.069.3-.39.606-.773.9-1.166a.612.612,0,0,0,0-.871c-.711-.91-1.359-1.873-2.034-2.816ZM6.3,58.215c.93-1.762,1.8-3.419,2.682-5.076a1.586,1.586,0,0,0-.553.18c-1.035.429-2.07.865-3.114,1.274-.786.308-.923.635-.478,1.352s.92,1.431,1.461,2.269ZM67.6,71.887l-2.879,3.078c1.018.364,1.9.675,2.764.986.37-.442.737-.858,1.074-1.3.1-.134.219-.373.167-.491C68.372,73.393,67.979,72.65,67.6,71.887ZM14.387,54.812c.724-1.444,1.4-2.787,2.152-4.3l-4.4,1.326c.773,1.022,1.48,1.952,2.25,2.97Zm57.3,21.764a25.169,25.169,0,0,0,1.7-2.191c.54-.868,1.765-1.65.622-2.9-.023-.026-.052-.046-.121-.108-.681.783-1.31,1.618-2.053,2.328-.668.639-1.218,1.189-.455,2.106a2.843,2.843,0,0,1,.3.76ZM32.107,69.028c-.527.815-1.123,1.736-1.8,2.78,1.565.383,2.875-.458,4.267-.318-.865-.861-1.673-1.67-2.466-2.459ZM33.829,7.1l3.209-3-.065-.144c-1.7.439-3.4.881-5.177,1.339.766.681,1.411,1.251,2.034,1.8Zm42.1,63.81c.953-1.634,1.906-3.236,2.8-4.863.128-.233-.01-.609-.033-1.074-1.117,1.483-2.1,2.777-3.062,4.074-.514.688-.455,1.1.291,1.867ZM38.666,24.268c-.842.953-1.621,1.831-2.43,2.748,1.47-.1,2.829-.193,4.319-.295l-1.89-2.456Zm36.282,5.079c-.776.629-1.5,1.215-2.273,1.837,1.461.445,2.82.861,4.369,1.336C76.287,31.374,75.645,30.4,74.948,29.347Zm-13-19.708c.508-.367,1.022-.74,1.592-1.156a28.849,28.849,0,0,0-4.5-1.768C60.08,7.76,60.987,8.67,61.95,9.636ZM24,8.968c-.111-.082-.226-.216-.272-.2a13.338,13.338,0,0,0-3.478,2.214c.347.367.658.691,1.005,1.058.894-1.005,1.795-2.011,2.741-3.075Zm40.627,20.2c1.32.269,2.509.511,3.8.77-.6-.858-1.163-1.66-1.745-2.5l-2.05,1.726Zm17.936,5.217c-.318-1.018-.586-1.87-.907-2.892-.766.688-1.421,1.271-2.1,1.88ZM70.72,55.29c.514-.868.982-1.66,1.516-2.564l-2.276-.632C70.216,53.175,70.451,54.157,70.72,55.29Zm-7.457-5.053c.134,1.061.255,2.027.4,3.157.609-.986,1.107-1.795,1.634-2.649l-2.037-.511ZM46.113,26.645l2.79.17c-.452-.619-.845-1.159-1.205-1.654-.544.508-1.032.966-1.585,1.483Zm10.532-.583c-.508.442-.933.819-1.51,1.32.982.121,1.768.216,2.59.314C57.362,27.147,57.025,26.636,56.645,26.063Zm5.135,47.96c-.429-.756-.779-1.375-1.156-2.037-.39.452-.737.851-1.123,1.3.734.239,1.444.468,2.276.737ZM39.786,69.441c-.386.517-.734.979-1.182,1.578l2.263-.206C40.5,70.345,40.186,69.948,39.786,69.441Zm-31.5-4.408c.115-.481.373-.937.242-1.146a17.118,17.118,0,0,0-1.477-1.808c-.023.023-.049.046-.072.069.406.9.812,1.8,1.3,2.885Zm46.388,7.159c.036-.049.069-.1.1-.151-.236-.4-.475-.789-.737-1.231-.269.38-.485.688-.756,1.071l1.389.311ZM81.1,61.417c-.016-.01-.033-.023-.049-.033-.364.494-.76.969-1.074,1.493a2.09,2.09,0,0,0-.1.789c.043,0,.088,0,.131-.007.367-.747.73-1.5,1.094-2.243Z" transform="translate(0)"/>
  </g>
</svg>