<svg xmlns="http://www.w3.org/2000/svg" width="2477.387" height="2053" viewBox="0 0 2477.387 2053">
  <g id="Gruppe_5" data-name="Gruppe 5" transform="translate(-932.113 -962)">
    <path id="Pfad_5" data-name="Pfad 5" d="M875.407,4218.141c6-65.955,26.982-104.929,146.9-275.813s-14.99-287.8,350.762-353.76,401.728-215.854,653.557-29.98,389.736,461.687,614.583,509.655,392.734,59.959,359.756,266.819-14.99,215.854-176.88,452.693-32.978,455.691-239.837,461.687-275.813,20.986-557.622,0-527.642-35.976-671.545,44.969-440.7,206.86-395.732-71.951,128.913-602.591,62.957-719.512S869.411,4284.1,875.407,4218.141Z" transform="translate(57 -2443.801)" fill="#f1e5df"/>
    <g id="Gruppe_2" data-name="Gruppe 2" transform="translate(0 -60)">
      <g id="Rechteck_13" data-name="Rechteck 13" transform="translate(1745 1099)" fill="#cca085" stroke="#7d563e" stroke-width="5">
        <rect width="28" height="1899" rx="10" stroke="none"/>
        <rect x="2.5" y="2.5" width="23" height="1894" rx="7.5" fill="none"/>
      </g>
      <g id="Rechteck_7" data-name="Rechteck 7" transform="translate(1538.5 2936.5) rotate(-90)" fill="#8a8a8a" stroke="#4a4a4a" stroke-width="5">
        <rect width="28" height="1871" rx="10" stroke="none"/>
        <rect x="2.5" y="2.5" width="23" height="1866" rx="7.5" fill="none"/>
      </g>
      <g id="Pfad_1" data-name="Pfad 1" transform="translate(1642.5 2936.5) rotate(-90)" fill="#8a8a8a">
        <path d="M 19.47567939758301 1764.162841796875 L 8.94334602355957 1764.162841796875 C 4.807870388031006 1764.162841796875 1.443346381187439 1760.79833984375 1.443346381187439 1756.662841796875 L 2.038108348846436 -93.86784362792969 C 2.038108348846436 -98.00403594970703 5.402632236480713 -101.3685607910156 9.538107872009277 -101.3685607910156 L 18.25185203552246 -101.3685607910156 L 23.62651634216309 -99.07882690429688 L 25.69929885864258 -97.23611450195312 C 39.45271301269531 -79.78678894042969 51.10145950317383 -65.04603576660156 60.4673957824707 -53.19379806518555 C 82.47905731201172 -25.33903503417969 94.60430145263672 -9.995224952697754 100.9050140380859 -1.455939531326294 C 103.908821105957 2.615012884140015 105.6695404052734 5.237870216369629 106.6135864257812 7.048346042633057 C 107.433349609375 8.620013236999512 107.5000152587891 9.31501293182373 107.5000152587891 10.00001335144043 L 107.5000152587891 1653 C 107.5000152587891 1653.689575195312 107.4314422607422 1654.390258789062 106.5895385742188 1655.984252929688 C 105.6176300048828 1657.825073242188 103.8026351928711 1660.500244140625 100.7047729492188 1664.658813476562 C 94.20787048339844 1673.380004882812 81.68477630615234 1689.091430664062 58.95072555541992 1717.614013671875 C 49.68437576293945 1729.239868164062 38.15568542480469 1743.703857421875 24.67051124572754 1760.662719726562 L 22.33652687072754 1763.209106445312 L 19.47567939758301 1764.162841796875 Z" stroke="none"/>
        <path d="M 9.538108825683594 -98.8685302734375 C 6.781204223632812 -98.8685302734375 4.538108825683594 -96.62548828125 4.538108825683594 -93.866943359375 L 3.943344116210938 1756.662841796875 C 3.943344116210938 1759.419799804688 6.186439514160156 1761.662841796875 8.943344116210938 1761.662841796875 L 19.06991577148438 1761.662841796875 L 20.93134307861328 1761.042358398438 L 22.76719665527344 1759.039306640625 C 36.22993469238281 1742.10888671875 47.74136352539062 1727.666381835938 56.99596405029297 1716.055786132812 C 79.71358489990234 1687.553833007812 92.22739410400391 1671.853637695312 98.70001220703125 1663.165283203125 C 101.6771545410156 1659.168823242188 103.4816818237305 1656.516235351562 104.3790588378906 1654.81689453125 C 105.0000152587891 1653.640991210938 105.0000152587891 1653.315063476562 105.0000152587891 1653 L 105.0000152587891 10 C 105.0000152587891 9.6856689453125 105.0000152587891 9.3607177734375 104.3969192504883 8.204345703125 C 103.5266799926758 6.5357666015625 101.7778701782227 3.9376220703125 98.89334869384766 0.0283203125 C 92.61715698242188 -8.4776611328125 80.50120544433594 -23.8096923828125 58.50620269775391 -51.6435546875 C 49.17076873779297 -63.457275390625 37.56842041015625 -78.139404296875 23.87318420410156 -95.5145263671875 L 22.27094268798828 -96.9388427734375 L 17.74131011962891 -98.8685302734375 L 9.538108825683594 -98.8685302734375 M 9.538108825683594 -103.8685302734375 L 18.76215362548828 -103.8685302734375 L 24.98191833496094 -101.21875 L 27.52596282958984 -98.9573974609375 C 105.5228729248047 0 110.0000152587891 4.4771728515625 110.0000152587891 10 L 110.0000152587891 1653 C 110.0000152587891 1658.522827148438 105.5228729248047 1663 26.57215881347656 1762.287841796875 L 23.74167633056641 1765.3759765625 L 19.88143920898438 1766.662841796875 L 8.943344116210938 1766.662841796875 C 3.420486450195312 1766.662841796875 -1.056655883789062 1762.185791015625 -1.056655883789062 1756.662841796875 L -0.4618911743164062 -93.8685302734375 C -0.4618911743164062 -99.391357421875 4.015251159667969 -103.8685302734375 9.538108825683594 -103.8685302734375 Z" stroke="none" fill="#4a4a4a"/>
      </g>
      <g id="Pfad_4" data-name="Pfad 4" transform="translate(3305.294 1175.5) rotate(90)" fill="#8a8a8a">
        <path d="M 19.47567939758301 1764.162841796875 L 8.94334602355957 1764.162841796875 C 4.807870388031006 1764.162841796875 1.443346381187439 1760.79833984375 1.443346381187439 1756.662841796875 L 2.038108348846436 -93.86784362792969 C 2.038108348846436 -98.00403594970703 5.402632236480713 -101.3685607910156 9.538107872009277 -101.3685607910156 L 18.25185203552246 -101.3685607910156 L 23.62651634216309 -99.07882690429688 L 25.33879089355469 -97.55661010742188 C 26.62047958374023 -93.33847808837891 33.70381546020508 -69.99845123291016 40.73810958862305 -46.27070236206055 C 45.27834701538086 -30.95594024658203 48.90953826904297 -18.4804630279541 51.53096389770508 -9.190701484680176 C 53.08406066894531 -3.686653852462769 54.2938232421875 0.7407271862030029 55.12691879272461 3.968584299087524 C 56.36795043945312 8.776764869689941 56.4888801574707 9.841205596923828 56.5000114440918 10.02208614349365 L 56.5000114440918 1652.637084960938 L 24.33953094482422 1761.023803710938 L 22.33652687072754 1763.209106445312 L 19.47567939758301 1764.162841796875 Z" stroke="none"/>
        <path d="M 9.538108825683594 -98.8685302734375 C 6.781204223632812 -98.8685302734375 4.538108825683594 -96.62548828125 4.538108825683594 -93.866943359375 L 3.943347930908203 1756.662841796875 C 3.943347930908203 1759.419799804688 6.186443328857422 1761.662841796875 8.943347930908203 1761.662841796875 L 19.06991958618164 1761.662841796875 L 20.93134689331055 1761.042358398438 L 22.10691833496094 1759.759765625 L 54.0000114440918 1652.274169921875 L 54.0000114440918 10.1593017578125 C 53.9024772644043 9.4246826171875 53.2331428527832 6.0123291015625 48.89620208740234 -9.3214111328125 C 46.25763320922852 -18.6497802734375 42.63929748535156 -31.06884765625 38.14167785644531 -46.2332763671875 C 31.48937797546387 -68.6629638671875 24.84047317504883 -90.5941162109375 23.15156936645508 -96.156005859375 L 22.27094268798828 -96.9388427734375 L 17.74131011962891 -98.8685302734375 L 9.538108825683594 -98.8685302734375 M 9.538108825683594 -103.8685302734375 L 18.76215744018555 -103.8685302734375 L 24.98191833496094 -101.21875 L 27.52596473693848 -98.9573974609375 C 27.52596473693848 -98.9573974609375 59.0000114440918 4.4771728515625 59.0000114440918 10 L 59.0000114440918 1653 L 26.5721549987793 1762.287841796875 L 23.74168014526367 1765.3759765625 L 19.88144302368164 1766.662841796875 L 8.943347930908203 1766.662841796875 C 3.420490264892578 1766.662841796875 -1.056652069091797 1762.185791015625 -1.056652069091797 1756.662841796875 L -0.4618911743164062 -93.8685302734375 C -0.4618911743164062 -99.391357421875 4.015251159667969 -103.8685302734375 9.538108825683594 -103.8685302734375 Z" stroke="none" fill="#4a4a4a"/>
      </g>
      <g id="Gruppe_1" data-name="Gruppe 1">
        <g id="Rechteck_11" data-name="Rechteck 11" transform="translate(3175 1099)" fill="#cca085" stroke="#7d563e" stroke-width="5">
          <rect width="28" height="1899" rx="10" stroke="none"/>
          <rect x="2.5" y="2.5" width="23" height="1894" rx="7.5" fill="none"/>
        </g>
        <g id="Rechteck_8" data-name="Rechteck 8" transform="translate(1538.5 2358.5) rotate(-90)" fill="#8a8a8a" stroke="#4a4a4a" stroke-width="5">
          <rect width="28" height="1871" rx="10" stroke="none"/>
          <rect x="2.5" y="2.5" width="23" height="1866" rx="7.5" fill="none"/>
        </g>
        <g id="Rechteck_14" data-name="Rechteck 14" transform="translate(1642.5 2299.5) rotate(-90)" fill="#8a8a8a" stroke="#4a4a4a" stroke-width="5">
          <rect width="28" height="1663" rx="10" stroke="none"/>
          <rect x="2.5" y="2.5" width="23" height="1658" rx="7.5" fill="none"/>
        </g>
        <g id="Pfad_2" data-name="Pfad 2" transform="translate(1642.5 2357.443) rotate(-90)" fill="#8a8a8a">
          <path d="M 19.47567939758301 1764.162841796875 L 8.94334602355957 1764.162841796875 C 4.807870388031006 1764.162841796875 1.443346381187439 1760.79833984375 1.443346381187439 1756.662841796875 L 2.038108348846436 -93.86784362792969 C 2.038108348846436 -98.00403594970703 5.402632236480713 -101.3685607910156 9.538107872009277 -101.3685607910156 L 18.25185203552246 -101.3685607910156 L 23.62651634216309 -99.07882690429688 L 25.57447814941406 -97.34708404541016 C 27.39627838134766 -94.27849578857422 41.44950866699219 -70.58799743652344 55.49977493286133 -46.33260726928711 C 64.29596710205078 -31.14736747741699 71.36858367919922 -18.71760559082031 76.52120208740234 -9.388319969177246 C 79.57167816162109 -3.865225076675415 81.97072601318359 0.6114414930343628 83.65167999267578 3.917631864547729 C 85.961669921875 8.461518287658691 86.41292572021484 9.813841819763184 86.50001525878906 10.14883804321289 L 86.50001525878906 1652.33642578125 L 24.5402946472168 1760.804809570312 L 22.33652687072754 1763.209106445312 L 19.47567939758301 1764.162841796875 Z" stroke="none"/>
          <path d="M 9.538108825683594 -98.8685302734375 C 6.781204223632812 -98.8685302734375 4.538108825683594 -96.62548828125 4.538108825683594 -93.866943359375 L 3.943344116210938 1756.662841796875 C 3.943344116210938 1759.419799804688 6.186439514160156 1761.662841796875 8.943344116210938 1761.662841796875 L 19.06991577148438 1761.662841796875 L 20.93134307861328 1761.042358398438 L 22.50783538818359 1759.322387695312 L 84.00001525878906 1651.672485351562 L 84.00001525878906 10.545166015625 C 83.78703308105469 9.9600830078125 83.11543273925781 8.343017578125 81.05096435546875 4.3226318359375 C 79.31048583984375 0.9326171875 76.87477111816406 -3.5909423828125 73.81143951416016 -9.122314453125 C 68.62548828125 -18.4874267578125 61.58596801757812 -30.84521484375 52.88834762573242 -45.85302734375 C 39.42195129394531 -69.08935546875 26.06737899780273 -91.61865234375 23.62350463867188 -95.736572265625 L 22.27094268798828 -96.9388427734375 L 17.74131011962891 -98.8685302734375 L 9.538108825683594 -98.8685302734375 M 9.538108825683594 -103.8685302734375 L 18.76215362548828 -103.8685302734375 L 24.98191833496094 -101.21875 L 27.52596664428711 -98.9573974609375 C 27.52596664428711 -98.9573974609375 89.00001525878906 4.4771728515625 89.00001525878906 10 L 89.00001525878906 1653 L 26.5721549987793 1762.287841796875 L 23.74167633056641 1765.3759765625 L 19.88143920898438 1766.662841796875 L 8.943344116210938 1766.662841796875 C 3.420486450195312 1766.662841796875 -1.056655883789062 1762.185791015625 -1.056655883789062 1756.662841796875 L -0.4618911743164062 -93.8685302734375 C -0.4618911743164062 -99.391357421875 4.015251159667969 -103.8685302734375 9.538108825683594 -103.8685302734375 Z" stroke="none" fill="#4a4a4a"/>
        </g>
        <g id="Pfad_3" data-name="Pfad 3" transform="translate(1642.5 1779.443) rotate(-90)" fill="#8a8a8a">
          <path d="M 19.47567939758301 1764.162841796875 L 8.94334602355957 1764.162841796875 C 4.807870388031006 1764.162841796875 1.443346381187439 1760.79833984375 1.443346381187439 1756.662841796875 L 2.038108348846436 -93.86784362792969 C 2.038108348846436 -98.00403594970703 5.402632236480713 -101.3685607910156 9.538107872009277 -101.3685607910156 L 18.25185203552246 -101.3685607910156 L 23.62651634216309 -99.07882690429688 L 25.33879089355469 -97.55661010742188 C 26.62047958374023 -93.33847808837891 33.70381546020508 -69.99845123291016 40.73810958862305 -46.27070236206055 C 45.27834701538086 -30.95594024658203 48.90953826904297 -18.4804630279541 51.53096389770508 -9.190701484680176 C 53.08406066894531 -3.686653852462769 54.2938232421875 0.7407271862030029 55.12691879272461 3.968584299087524 C 56.36795043945312 8.776764869689941 56.4888801574707 9.841205596923828 56.5000114440918 10.02208614349365 L 56.5000114440918 1652.637084960938 L 24.33953094482422 1761.023803710938 L 22.33652687072754 1763.209106445312 L 19.47567939758301 1764.162841796875 Z" stroke="none"/>
          <path d="M 9.538108825683594 -98.8685302734375 C 6.781204223632812 -98.8685302734375 4.538108825683594 -96.62548828125 4.538108825683594 -93.866943359375 L 3.943347930908203 1756.662841796875 C 3.943347930908203 1759.419799804688 6.186443328857422 1761.662841796875 8.943347930908203 1761.662841796875 L 19.06991958618164 1761.662841796875 L 20.93134689331055 1761.042358398438 L 22.10691833496094 1759.759765625 L 54.0000114440918 1652.274169921875 L 54.0000114440918 10.1593017578125 C 53.9024772644043 9.4246826171875 53.2331428527832 6.0123291015625 48.89620208740234 -9.3214111328125 C 46.25763320922852 -18.6497802734375 42.63929748535156 -31.06884765625 38.14167785644531 -46.2332763671875 C 31.48937797546387 -68.6629638671875 24.84047317504883 -90.5941162109375 23.15156936645508 -96.156005859375 L 22.27094268798828 -96.9388427734375 L 17.74131011962891 -98.8685302734375 L 9.538108825683594 -98.8685302734375 M 9.538108825683594 -103.8685302734375 L 18.76215744018555 -103.8685302734375 L 24.98191833496094 -101.21875 L 27.52596473693848 -98.9573974609375 C 27.52596473693848 -98.9573974609375 59.0000114440918 4.4771728515625 59.0000114440918 10 L 59.0000114440918 1653 L 26.5721549987793 1762.287841796875 L 23.74168014526367 1765.3759765625 L 19.88144302368164 1766.662841796875 L 8.943347930908203 1766.662841796875 C 3.420490264892578 1766.662841796875 -1.056652069091797 1762.185791015625 -1.056652069091797 1756.662841796875 L -0.4618911743164062 -93.8685302734375 C -0.4618911743164062 -99.391357421875 4.015251159667969 -103.8685302734375 9.538108825683594 -103.8685302734375 Z" stroke="none" fill="#4a4a4a"/>
        </g>
        <g id="Rechteck_4" data-name="Rechteck 4" transform="translate(2460 1022)" fill="#cca085" stroke="#7d563e" stroke-width="5">
          <rect width="28" height="2053" rx="10" stroke="none"/>
          <rect x="2.5" y="2.5" width="23" height="2048" rx="7.5" fill="none"/>
        </g>
        <g id="Rechteck_5" data-name="Rechteck 5" transform="translate(3238 1022)" fill="#cca085" stroke="#7d563e" stroke-width="5">
          <rect width="28" height="2053" rx="10" stroke="none"/>
          <rect x="2.5" y="2.5" width="23" height="2048" rx="7.5" fill="none"/>
        </g>
      </g>
      <g id="Rechteck_6" data-name="Rechteck 6" transform="translate(1682 1022)" fill="#cca085" stroke="#7d563e" stroke-width="5">
        <rect width="28" height="2053" rx="10" stroke="none"/>
        <rect x="2.5" y="2.5" width="23" height="2048" rx="7.5" fill="none"/>
      </g>
    </g>
    <g id="Gruppe_3" data-name="Gruppe 3" transform="translate(129.227 -717.888)">
      <g id="Vereinigungsmenge_1" data-name="Vereinigungsmenge 1" transform="translate(1705.773 3190.888)" fill="#e6d5b2">
        <path d="M 447.8844604492188 379.5001220703125 L 2.5 379.5001220703125 L 2.5 84.64281463623047 L 50.95513534545898 3.105247020721436 L 496.5 3.105247020721436 L 496.5 297.3596801757812 L 447.8844604492188 379.5001220703125 Z" stroke="none"/>
        <path d="M 446.4590148925781 377.0001220703125 L 494 296.6752624511719 L 494 5.605255603790283 L 52.3775520324707 5.605255603790283 L 5 85.32955169677734 L 5 377.0001220703125 L 446.4590148925781 377.0001220703125 M 449.3098754882812 382.0001220703125 L 0 382.0001220703125 L 0 83.9560546875 L 49.53266525268555 0.6052554249763489 L 498.6301879882812 0.6052554249763489 L 499 0.0001220703125 L 499 298.0440673828125 L 449.3098754882812 382.0001220703125 Z" stroke="none" fill="#b1987d"/>
      </g>
      <path id="Pfad_10" data-name="Pfad 10" d="M1709.333,5926h445.638v295.538" transform="translate(-1.003 -2650.395)" fill="none" stroke="#b1987d" stroke-width="5"/>
      <path id="Pfad_11" data-name="Pfad 11" d="M2346.667,5891.11,2394.68,5810" transform="translate(-192.698 -2615.504)" fill="none" stroke="#b1987d" stroke-width="5"/>
      <line id="Linie_1" data-name="Linie 1" x2="445.404" transform="translate(1735.018 3230.506)" fill="none" stroke="#b1987d" stroke-width="5"/>
    </g>
    <g id="Gruppe_4" data-name="Gruppe 4" transform="translate(2620 1988.5)">
      <g id="Vereinigungsmenge_1-2" data-name="Vereinigungsmenge 1" transform="translate(499 296.5) rotate(180)" fill="#e6d5b2">
        <path d="M 496.5 294.0295715332031 L 50.76849365234375 294.0295715332031 L 2.5 230.8793334960938 L 2.5 2.5 L 448.0710754394531 2.5 L 496.5 66.11798095703125 L 496.5 294.0295715332031 Z" stroke="none"/>
        <path d="M 5 5 L 5 230.0333251953125 L 52.00421142578125 291.529541015625 L 494 291.529541015625 L 494 66.96125793457031 L 446.8322448730469 5 L 5 5 M 0 0 L 449.3098754882812 0 L 499 65.27473449707031 L 499 297 L 498.6301879882812 296.529541015625 L 49.53265380859375 296.529541015625 L 0 231.725341796875 L 0 0 Z" stroke="none" fill="#b1987d"/>
      </g>
      <path id="Pfad_10-2" data-name="Pfad 10" d="M2154.971,5926H1709.333v229.391" transform="translate(-1658.529 -5860.244)" fill="none" stroke="#b1987d" stroke-width="5"/>
      <path id="Pfad_11-2" data-name="Pfad 11" d="M2394.68,5872.956,2346.667,5810" transform="translate(-2343.875 -5807.2)" fill="none" stroke="#b1987d" stroke-width="5"/>
      <line id="Linie_1-2" data-name="Linie 1" x1="445.404" transform="translate(24.351 30.751)" fill="none" stroke="#b1987d" stroke-width="5"/>
    </g>
  </g>
</svg>
