<svg xmlns="http://www.w3.org/2000/svg" width="82.321" height="82.321" viewBox="0 0 82.321 82.321">
  <path id="instagram" d="M25.867,3A22.869,22.869,0,0,0,3,25.867V62.454A22.869,22.869,0,0,0,25.867,85.321H62.454A22.869,22.869,0,0,0,85.321,62.454V25.867A22.869,22.869,0,0,0,62.454,3ZM71.6,12.147a4.573,4.573,0,1,1-4.573,4.573A4.575,4.575,0,0,1,71.6,12.147Zm-27.44,9.147A22.867,22.867,0,1,1,21.294,44.161,22.869,22.869,0,0,1,44.161,21.294Zm0,9.147a13.72,13.72,0,1,0,13.72,13.72,13.72,13.72,0,0,0-13.72-13.72Z" transform="translate(-3 -3)" fill="#000"/>
</svg>
