<svg xmlns="http://www.w3.org/2000/svg" width="45.511" height="32" viewBox="0 0 45.511 32">
  <path id="youtube" d="M45.61,9.507a5.718,5.718,0,0,0-4.024-4.05C38.037,4.5,23.805,4.5,23.805,4.5s-14.232,0-17.781.957A5.719,5.719,0,0,0,2,9.507C1.05,13.079,1.05,20.532,1.05,20.532s0,7.453.951,11.025a5.633,5.633,0,0,0,4.024,3.985c3.549.957,17.781.957,17.781.957s14.232,0,17.781-.957a5.633,5.633,0,0,0,4.024-3.985c.951-3.572.951-11.025.951-11.025s0-7.453-.951-11.025ZM19.151,27.3V13.765l11.895,6.767L19.151,27.3Z" transform="translate(-1.05 -4.5)" fill="#000"/>
</svg>
